HIERARCHY
ROOT joint_Root
{
	OFFSET 0.0 0.0 0.0
	CHANNELS 6 Xposition Yposition Zposition Zrotation Xrotation Yrotation 
	JOINT Hips
	{
		OFFSET 4.5925 91.4895 -427.239
		CHANNELS 6 Xposition Yposition Zposition Zrotation Xrotation Yrotation 
		JOINT Spine
		{
			OFFSET 15.7357 0.0 0.0
			CHANNELS 6 Xposition Yposition Zposition Zrotation Xrotation Yrotation 
			JOINT Chest
			{
				OFFSET 8.98455 -0.406207 0.0
				CHANNELS 6 Xposition Yposition Zposition Zrotation Xrotation Yrotation 
				JOINT Neck
				{
					OFFSET 16.3773 0.0 0.0
					CHANNELS 6 Xposition Yposition Zposition Zrotation Xrotation Yrotation 
					JOINT Head
					{
						OFFSET 6.45672 0.0 0.0
						CHANNELS 6 Xposition Yposition Zposition Zrotation Xrotation Yrotation 
						End Site
						{
							OFFSET 0.0 0.0 0.0
						}
					}
				}
				JOINT Shoulder_L
				{
					OFFSET 12.9942 -0.242716 4.98039
					CHANNELS 6 Xposition Yposition Zposition Zrotation Xrotation Yrotation 
					JOINT UpperArm_L
					{
						OFFSET 5.34809 0.0 0.0
						CHANNELS 6 Xposition Yposition Zposition Zrotation Xrotation Yrotation 
						JOINT LowerArm_L
						{
							OFFSET 24.3286 1.87007e-05 0.0
							CHANNELS 6 Xposition Yposition Zposition Zrotation Xrotation Yrotation 
							JOINT Hand_L
							{
								OFFSET 22.2916 0.0 0.0
								CHANNELS 6 Xposition Yposition Zposition Zrotation Xrotation Yrotation 
								End Site
								{
									OFFSET 0.0 0.0 0.0
								}
							}
						}
					}
				}
				JOINT Shoulder_R
				{
					OFFSET 12.9945 -0.242716 -4.98039
					CHANNELS 6 Xposition Yposition Zposition Zrotation Xrotation Yrotation 
					JOINT UpperArm_R
					{
						OFFSET -5.34813 0.0 0.0
						CHANNELS 6 Xposition Yposition Zposition Zrotation Xrotation Yrotation 
						JOINT LowerArm_R
						{
							OFFSET -24.3289 0.000322201 0.0
							CHANNELS 6 Xposition Yposition Zposition Zrotation Xrotation Yrotation 
							JOINT Hand_R
							{
								OFFSET -22.2915 -0.000108084 0.0
								CHANNELS 6 Xposition Yposition Zposition Zrotation Xrotation Yrotation 
								End Site
								{
									OFFSET 0.0 0.0 0.0
								}
							}
						}
					}
				}
			}
		}
		JOINT UpperLeg_L
		{
			OFFSET -2.19248 -6.46944 0.0
			CHANNELS 6 Xposition Yposition Zposition Zrotation Xrotation Yrotation 
			JOINT LowerLeg_L
			{
				OFFSET 39.0811 0.0 -1.23785e-05
				CHANNELS 6 Xposition Yposition Zposition Zrotation Xrotation Yrotation 
				JOINT Foot_L
				{
					OFFSET 40.9854 0.0 -1.26872e-05
					CHANNELS 6 Xposition Yposition Zposition Zrotation Xrotation Yrotation 
					JOINT Toes_L
					{
						OFFSET 11.7543 0.0 0.0
						CHANNELS 6 Xposition Yposition Zposition Zrotation Xrotation Yrotation 
						End Site
						{
							OFFSET 0.0 0.0 0.0
						}
					}
				}
			}
		}
		JOINT UpperLeg_R
		{
			OFFSET -2.19251 6.46944 0.0
			CHANNELS 6 Xposition Yposition Zposition Zrotation Xrotation Yrotation 
			JOINT LowerLeg_R
			{
				OFFSET -39.0811 -0.00228153 -0.0401928
				CHANNELS 6 Xposition Yposition Zposition Zrotation Xrotation Yrotation 
				JOINT Foot_R
				{
					OFFSET -40.9854 0.0 0.0
					CHANNELS 6 Xposition Yposition Zposition Zrotation Xrotation Yrotation 
					JOINT Toes_R
					{
						OFFSET -11.7543 0.0 0.0
						CHANNELS 6 Xposition Yposition Zposition Zrotation Xrotation Yrotation 
						End Site
						{
							OFFSET 0.0 0.0 0.0
						}
					}
				}
			}
		}
	}
}
MOTION
Frames:	6
Frame Time:	0.0333333
0.000000 0.000000 0.000000 0.000000 0.000000 -0.000000 0.765242 89.374600 -513.763000 90.260800 -10.472000 3.308060 15.735700 0.000005 -0.000001 107.082000 83.225800 -106.766000 8.984550 -0.406207 -0.000000 5.183670 3.964050 0.451168 16.377300 -0.000001 -0.000001 -0.968292 -1.788980 3.862550 6.456720 -0.000001 -0.000000 -10.863000 -2.893720 6.185460 12.994200 -0.242716 4.980390 -90.682300 2.031620 -71.430500 5.348090 -0.000007 -0.000001 -76.494600 18.001200 8.689120 24.328600 0.000019 0.000005 0.000065 33.693100 -0.000004 22.291600 -0.000001 0.000005 0.288167 5.042810 6.397920 12.994500 -0.242716 -4.980390 88.667500 9.909260 -82.302300 -5.348130 -0.000001 -0.000004 -51.664100 32.429200 -28.230700 -24.328900 0.000322 -0.000009 -0.405985 -0.784292 -27.286100 -22.291500 -0.000108 -0.000004 17.879800 5.400250 -2.944140 -2.192480 -6.469440 -0.000000 -176.481000 -1.912930 -25.765000 39.081100 -0.000007 -0.000012 0.075115 -0.032855 66.372000 40.985400 -0.000006 -0.000013 -0.741647 -4.525250 -63.169200 11.754300 -0.000000 0.000003 -0.005063 -0.062081 -19.102800 -2.192510 6.469440 -0.000001 176.459000 12.122200 -179.235000 -39.081100 -0.002282 -0.040193 0.017808 -0.022252 33.112400 -40.985400 0.000008 0.000006 7.460050 5.531150 -77.490100 -11.754300 -0.000006 -0.000006 -0.004854 -0.060050 -19.016300
0.000000 0.000000 0.000000 0.000000 0.000000 -0.000000 0.792647 89.793100 -511.829000 90.329700 -11.374100 2.724000 15.735700 0.000005 -0.000001 110.352000 83.429300 -110.145000 8.984550 -0.406207 -0.000000 4.558380 4.556570 0.232641 16.377300 -0.000001 -0.000001 -1.176010 -1.822800 3.753030 6.456720 -0.000001 -0.000000 -11.163500 -3.261280 5.714690 12.994200 -0.242716 4.980390 -90.653300 1.909360 -71.107900 5.348090 -0.000007 -0.000001 -74.691700 17.247200 11.069400 24.328600 0.000019 0.000005 0.000062 33.366400 -0.000004 22.291600 -0.000001 0.000005 1.143670 5.028580 6.705870 12.994500 -0.242716 -4.980390 88.842100 9.209280 -82.802100 -5.348130 -0.000001 -0.000004 -50.362500 30.657100 -32.237600 -24.328900 0.000322 -0.000009 -1.109580 -1.954870 -29.549100 -22.291500 -0.000108 -0.000004 17.600000 5.395190 -2.782100 -2.192480 -6.469440 -0.000000 -177.474000 -2.670550 -26.835300 39.081100 -0.000007 -0.000012 0.052209 -0.032291 58.259300 40.985400 -0.000006 -0.000013 -1.054910 -6.346670 -64.678300 11.754300 -0.000000 0.000003 -0.004616 -0.057708 -18.924600 -2.192510 6.469440 -0.000001 175.355000 13.039500 -177.949000 -39.081100 -0.002282 -0.040193 0.013562 -0.016702 31.571000 -40.985400 0.000008 0.000006 7.941420 7.822920 -75.823800 -11.754300 -0.000006 -0.000006 -0.011020 -0.111106 -21.101200
0.000000 0.000000 0.000000 0.000000 0.000000 -0.000000 0.843389 89.963200 -509.781000 90.091400 -12.164900 2.282670 15.735700 0.000005 -0.000001 112.474000 83.464300 -112.312000 8.984550 -0.406207 -0.000000 4.319080 4.983710 0.134759 16.377300 -0.000001 -0.000001 -1.749920 -1.885390 3.586930 6.456720 -0.000001 -0.000000 -11.792600 -3.666380 5.250350 12.994200 -0.242716 4.980390 -90.626900 1.814990 -70.941000 5.348090 -0.000007 -0.000001 -72.965200 16.626000 12.814300 24.328600 0.000019 0.000005 0.920458 32.799600 -1.699330 22.291600 -0.000001 0.000005 4.362180 5.036800 6.529160 12.994500 -0.242716 -4.980390 88.994400 8.597450 -83.303000 -5.348130 -0.000001 -0.000004 -49.407500 28.715200 -35.669700 -24.328900 0.000322 -0.000009 -1.701880 -2.724520 -31.990600 -22.291500 -0.000108 -0.000004 18.017800 5.407210 -3.171760 -2.192480 -6.469440 -0.000000 -178.202000 -4.816630 -27.093200 39.081100 -0.000007 -0.000012 0.031828 -0.027425 49.246200 40.985400 -0.000006 -0.000013 -2.524830 -6.069530 -64.876700 11.754300 -0.000000 0.000003 -0.004667 -0.058216 -18.945300 -2.192510 6.469440 -0.000001 174.444000 13.869700 -176.572000 -39.081100 -0.002282 -0.040193 0.007120 -0.006483 30.499800 -40.985400 0.000008 0.000006 7.947790 10.067100 -74.565800 -11.754300 -0.000006 -0.000006 -0.018379 -0.158139 -23.031200
0.000000 0.000000 0.000000 0.000000 0.000000 -0.000000 0.824112 89.812900 -507.495000 89.564600 -12.841500 2.095570 15.735700 0.000005 -0.000001 114.306000 83.399600 -114.110000 8.984550 -0.406207 -0.000000 4.271130 5.418840 0.188712 16.377300 -0.000001 -0.000001 -2.115050 -2.113830 3.395860 6.456720 -0.000001 -0.000000 -12.517400 -4.080300 4.788720 12.994200 -0.242716 4.980390 -90.522600 1.520230 -71.025900 5.348090 -0.000007 -0.000001 -71.707800 16.392700 13.690600 24.328600 0.000019 0.000005 1.960040 31.211400 -3.779050 22.291600 -0.000001 0.000005 8.075520 5.053860 6.153760 12.994500 -0.242716 -4.980390 89.111400 7.978850 -83.624200 -5.348130 -0.000001 -0.000004 -48.965800 26.870100 -37.997300 -24.328900 0.000322 -0.000009 -1.751750 -2.528750 -34.713800 -22.291500 -0.000108 -0.000004 18.970400 5.418240 -3.538670 -2.192480 -6.469440 -0.000000 -178.755000 -7.452700 -27.052900 39.081100 -0.000007 -0.000012 0.012782 -0.014181 42.024800 40.985400 -0.000006 -0.000013 -3.639640 -3.277220 -64.356100 11.754300 -0.000000 0.000003 -0.003900 -0.050406 -18.627100 -2.192510 6.469440 -0.000001 173.673000 14.741600 -174.884000 -39.081100 -0.002282 -0.040193 0.000380 0.005066 29.979200 -40.985400 0.000008 0.000006 8.044830 11.995700 -73.995800 -11.754300 -0.000006 -0.000006 -0.026850 -0.202648 -24.868000
0.000000 0.000000 0.000000 0.000000 0.000000 -0.000000 0.781430 89.316000 -504.912000 89.022800 -13.496100 1.921880 15.735700 0.000005 -0.000001 115.677000 83.358600 -115.482000 8.984550 -0.406207 -0.000000 4.212770 5.740280 0.177775 16.377300 -0.000001 -0.000001 -2.348720 -2.331090 3.303150 6.456720 -0.000001 -0.000000 -12.968600 -4.384080 4.342470 12.994200 -0.242716 4.980390 -90.440400 1.288290 -71.125400 5.348090 -0.000007 -0.000001 -70.455200 15.894700 13.573400 24.328600 0.000019 0.000005 2.555020 29.240100 -5.220200 22.291600 -0.000001 0.000005 10.856000 5.053940 6.151360 12.994500 -0.242716 -4.980390 89.178300 7.628660 -83.833500 -5.348130 -0.000001 -0.000004 -48.552100 25.376800 -39.614000 -24.328900 0.000322 -0.000009 -1.563610 -2.028770 -37.616600 -22.291500 -0.000108 -0.000004 19.852900 5.416820 -3.491600 -2.192480 -6.469440 -0.000000 -179.765000 -10.683800 -27.521600 39.081100 -0.000007 -0.000012 0.002215 -0.002773 38.598200 40.985400 -0.000006 -0.000013 -3.914430 -1.933800 -65.089700 11.754300 -0.000000 0.000003 -0.003814 -0.049502 -18.590300 -2.192510 6.469440 -0.000001 173.229000 14.323500 -173.465000 -39.081100 -0.002282 -0.040193 -0.005405 0.014847 30.387700 -40.985400 0.000008 0.000006 7.744220 12.748600 -74.072500 -11.754300 -0.000006 -0.000006 -0.035078 -0.239860 -26.413000
0.000000 0.000000 0.000000 0.000000 0.000000 -0.000000 0.827444 88.603500 -501.987000 88.638600 -14.431400 1.720280 15.735700 0.000005 -0.000001 116.961000 83.396300 -116.856000 8.984550 -0.406207 -0.000000 4.018640 5.975730 -0.001694 16.377300 -0.000001 -0.000001 -2.383530 -2.344270 3.265110 6.456720 -0.000001 -0.000000 -13.152200 -4.527540 4.091540 12.994200 -0.242716 4.980390 -90.532500 1.548430 -71.022000 5.348090 -0.000007 -0.000001 -68.827600 14.957300 12.686800 24.328600 0.000019 0.000005 2.891590 27.995400 -6.141760 22.291600 -0.000001 0.000005 12.107800 5.035290 6.558930 12.994500 -0.242716 -4.980390 89.186400 7.749560 -83.987800 -5.348130 -0.000001 -0.000004 -47.756000 24.612300 -40.766300 -24.328900 0.000322 -0.000009 -1.694350 -2.010220 -40.121300 -22.291500 -0.000108 -0.000004 20.662100 5.430030 -3.939190 -2.192480 -6.469440 -0.000000 178.387000 -14.321000 -28.851600 39.081100 -0.000007 -0.000012 0.092311 -0.111988 39.497900 40.985400 -0.000006 -0.000013 0.877843 -3.162090 -65.895500 11.754300 -0.000000 0.000003 -0.004354 -0.055076 -18.817300 -2.192510 6.469440 -0.000001 172.934000 12.503000 -172.523000 -39.081100 -0.002282 -0.040193 -0.004514 0.012655 31.687800 -40.985400 0.000008 0.000006 7.325120 12.350200 -74.316200 -11.754300 -0.000006 -0.000006 -0.046617 -0.285484 -28.320900
